# xmcd
#
# Track frame offsets: 
#        150
#        17343
#        32129
#        47846
#        65344
#        80226
#        97133
#        111046
#        129058
#        145660
#        162220
#        176640
#
# Disc length: 2573 seconds
#
# Revision: 0
# Processed by: cddbd v1.5.2PL0 Copyright (c) Steve Scherf et al.
# Submitted via: ExactAudioCopy v0.99pb3
#
DISCID=980a0b0c
DTITLE=Keke Palmer - So Uncool
DYEAR=2007
DGENRE=R&B
TTITLE0=Keep It Movin'
TTITLE1=The Game Song
TTITLE2=Music Box
TTITLE3=First Crush
TTITLE4=Friend Me Up
TTITLE5=How Will I Know
TTITLE6=Footwurkin'
TTITLE7=Rainbow
TTITLE8=Bottoms Up
TTITLE9=Skin Deep
TTITLE10=Wake Up Call
TTITLE11=Hood Anthem
EXTD=
EXTT0=
EXTT1=
EXTT2=
EXTT3=
EXTT4=
EXTT5=
EXTT6=
EXTT7=
EXTT8=
EXTT9=
EXTT10=
EXTT11=
PLAYORDER=
